<?xml version="1.0" encoding="UTF-8" standalone="no"?>
<!DOCTYPE svg PUBLIC "-//W3C//DTD SVG 1.1//EN" "http://www.w3.org/Graphics/SVG/1.1/DTD/svg11.dtd">
<svg width="100%" height="100%" viewBox="0 0 24 24" version="1.1" xmlns="http://www.w3.org/2000/svg" xmlns:xlink="http://www.w3.org/1999/xlink" xml:space="preserve" xmlns:serif="http://www.serif.com/" style="fill-rule:evenodd;clip-rule:evenodd;stroke-linejoin:round;stroke-miterlimit:2;">
    <g id="Layer-2" serif:id="Layer 2" transform="matrix(0.223186,0,0,0.223186,1.95663,-6.69559e-05)">
        <g transform="matrix(1,0,0,1,27.2432,0.0003)">
            <path d="M0,77.294L29.035,77.294L-3.314,44.945C-12.321,35.938 -5.942,20.537 6.797,20.537L48.843,20.537L62.757,0L8.27,0C-23.306,0 -39.119,38.176 -16.792,60.503L0,77.294Z" style="fill:white;fill-rule:nonzero;"/>
        </g>
        <g transform="matrix(1,0,0,1,62.7568,107.534)">
            <path d="M0,-77.294L-29.035,-77.294L3.314,-44.945C12.321,-35.938 5.942,-20.536 -6.797,-20.536L-48.843,-20.536L-62.757,0L-8.27,0C23.306,0 39.119,-38.175 16.791,-60.502L0,-77.294Z" style="fill:white;fill-rule:nonzero;"/>
        </g>
    </g>
</svg>
